<svg width="36" height="36" viewBox="0 0 36 36" fill="none" xmlns="http://www.w3.org/2000/svg">
<path d="M11.1953 21.2222L11.1494 21.221L11.0996 21.2198C11.0222 21.204 10.9758 21.1568 10.9759 21.1094C10.9759 21.0623 11.0378 20.9992 11.0997 20.9992C24.344 20.9992 30.0996 17.2224 30.2853 14.012C30.5174 10.0461 23.1524 8.20499 18.6192 8.20499C18.5572 8.20499 18.5108 8.18911 18.5108 8.09465C18.5108 8.01606 18.6192 8.01606 18.65 8.01606C18.65 8.01606 34.9887 7.38645 34.5866 14.012C34.1035 21.8263 12.9619 21.2688 11.1953 21.2222Z" fill="currentcolor"/>
<path fill-rule="evenodd" clip-rule="evenodd" d="M7.60291 9.10188C7.58032 9.10188 7.57419 9.11038 7.56653 9.121C7.56368 9.12495 7.56062 9.1292 7.55642 9.13341C6.21036 11.0533 5.42132 12.3281 4.58568 13.9018L4.49292 14.0748L4.47731 14.1379C4.40005 14.2954 4.41543 14.4683 4.5238 14.61C5.01883 15.3968 7.78844 16.3253 13.9618 16.3253C18.5725 16.3253 23.4772 15.5699 23.4772 14.1538C23.4772 12.8159 18.6499 12.0135 13.9618 12.0135C12.399 12.0135 10.8673 12.2181 10.4341 12.2968C10.7252 11.836 11.6704 10.5266 12.2164 9.7701C12.4537 9.44127 12.6156 9.21693 12.6156 9.21223C12.6465 9.18082 12.6465 9.18081 12.6465 9.16505V9.13364C12.6383 9.12942 12.6311 9.12521 12.6245 9.12129C12.6063 9.11057 12.5919 9.10211 12.5693 9.10211L7.60291 9.10188ZM9.39762 14.1536C9.39762 13.8704 11.1461 13.4612 13.9619 13.4612C16.7778 13.4612 18.5109 13.8704 18.5109 14.1536C18.5109 14.4682 16.7779 14.8617 13.9619 14.8617C11.1459 14.8618 9.39762 14.4684 9.39762 14.1536Z" fill="currentcolor"/>
<path d="M30.053 22.8564C30.1306 22.6991 30.0221 22.6045 29.9293 22.6045H29.3104C29.0823 22.6045 28.9988 22.7517 28.9508 22.8362L28.9391 22.8564C28.8925 22.9195 28.8617 22.9669 28.8153 23.0612C28.7536 23.1711 28.7536 23.2812 28.8774 23.2812H29.5117C29.6817 23.2812 29.8211 23.234 29.8829 23.1397C29.9292 23.0456 29.9604 22.9822 30.053 22.8564Z" fill="currentcolor"/>
<path fill-rule="evenodd" clip-rule="evenodd" d="M4.43104 24.8708C3.81214 26.0194 3.28612 26.0512 2.49697 26.0826C1.61506 26.114 0.872399 26.114 0.284495 26.0823C0.0833614 26.0667 -0.117884 25.9405 0.0833613 25.6259C0.268998 25.3268 1.55329 23.2182 1.63055 23.0609C1.73892 22.9191 1.94006 22.6832 2.11031 22.6832C2.94573 22.6358 4.04427 22.6044 4.63229 22.6832C4.64467 22.6848 4.66264 22.6856 4.68457 22.6866C4.88161 22.6952 5.39807 22.7178 5.04994 23.4543C4.67531 24.2588 4.00203 24.3291 3.94514 24.335L3.9514 24.3355C3.9514 24.3355 4.69405 24.3514 4.43104 24.8708ZM2.32683 25.4531C2.55885 25.4531 2.96123 25.4373 3.17774 24.9809C3.32638 24.6484 3.03255 24.6498 2.89943 24.6504L2.88385 24.6504H2.21846C2.0792 24.6504 2.01743 24.6819 1.95556 24.792C1.9409 24.8143 1.92106 24.8455 1.89788 24.8819C1.82304 24.9995 1.71314 25.1721 1.63055 25.2799C1.55318 25.4531 1.63055 25.4531 1.70793 25.4531H2.32683ZM2.89923 24.0837C3.11587 24.0837 3.53363 24.0837 3.75015 23.6275C3.92022 23.2818 3.59662 23.2812 3.47228 23.281H3.02299C2.91462 23.281 2.85263 23.3284 2.77537 23.4227C2.73514 23.4718 2.6824 23.5677 2.6258 23.6705C2.57356 23.7655 2.51798 23.8665 2.46597 23.9421C2.35771 24.0837 2.46597 24.0837 2.52796 24.0837H2.89923Z" fill="currentcolor"/>
<path d="M6.14837 23.1711C6.3805 22.8249 6.64362 22.7463 6.72089 22.7463C6.72089 22.7463 7.06139 22.7463 7.18492 22.7465C7.32429 22.7465 7.43244 22.8564 7.2623 23.1556C7.15153 23.3201 6.72636 24.0146 6.34859 24.6317L6.34795 24.6327C6.04011 25.1356 5.76375 25.587 5.71511 25.6576C5.63773 25.8307 5.4366 26.0826 5.21996 26.0826H4.75582C4.5393 26.0826 4.47731 25.9409 4.67855 25.6104C4.86419 25.2799 5.91635 23.5173 6.14837 23.1711Z" fill="currentcolor"/>
<path d="M28.2583 24.0052L27.2372 25.6575C27.0207 26.0037 27.2064 26.0825 27.3145 26.0825H27.7632C27.9333 26.0825 28.0572 26.0667 28.3202 25.6575L29.3413 23.9737C29.6032 23.5444 29.3177 23.5468 29.1027 23.5486L29.0628 23.5488L29.0164 23.5507C28.6681 23.564 28.57 23.5678 28.2583 24.0052Z" fill="currentcolor"/>
<path d="M31.2444 24.1153H32.4669C32.5442 24.1153 32.7918 24.0681 32.8073 23.895C32.8491 23.5533 32.259 23.5591 31.8251 23.5634C31.7791 23.5638 31.7348 23.5643 31.6933 23.5643C30.6101 23.5643 30.2388 23.8476 30.2388 23.8476C30.115 23.9421 29.9448 24.1151 29.8521 24.2568C29.5116 24.7601 29.4498 25.0595 29.8984 25.0595H30.8421C30.9658 25.0595 31.0124 25.2168 30.9194 25.3425C30.8421 25.4843 30.6718 25.5944 30.5481 25.5944H29.2794C29.1559 25.5944 29.0009 25.6571 28.9545 25.7201C28.9238 25.7991 28.9545 25.9406 29.0473 26.0192C29.0473 26.0192 29.0937 26.1296 30.0995 26.1296C31.1979 26.1296 31.5383 25.8463 31.5383 25.8463C31.6776 25.7678 31.8479 25.563 31.9254 25.4373C32.343 24.8551 32.2037 24.5875 31.8168 24.6033C31.6822 24.6033 31.5314 24.6012 31.3938 24.5993C31.1518 24.596 30.9504 24.5932 30.9504 24.6033C30.8267 24.6033 30.7803 24.4773 30.8576 24.3514C30.9504 24.2256 31.1207 24.1153 31.2444 24.1153Z" fill="currentcolor"/>
<path d="M35.6694 24.1311H34.6791C34.5554 24.1311 34.3851 24.2414 34.308 24.3986L33.7201 25.3271C33.6426 25.4531 33.6892 25.5946 33.782 25.5946H34.9579C35.1279 25.5946 35.2364 25.6104 35.2209 25.6576C35.2054 25.8307 34.9579 26.1298 33.5807 26.1298C32.4006 26.1298 32.4159 25.9724 32.4333 25.7943L32.4357 25.768C32.4667 25.5632 33.0699 24.5877 33.2556 24.2886C33.4414 23.974 33.7044 23.5645 34.9267 23.5645C36.0717 23.5645 36.0096 23.832 35.9941 23.8952C35.9943 23.958 35.9326 24.1311 35.6694 24.1311Z" fill="currentcolor"/>
<path d="M11.4245 24.4143C11.1925 24.4143 11.0996 24.5717 11.0532 24.6503C11.0383 24.6807 11.0197 24.7075 10.9976 24.7393C10.9739 24.7735 10.946 24.8137 10.9139 24.8708C10.8674 24.9809 10.8829 25.0908 10.9448 25.0908H11.6101C11.8113 25.0908 11.9195 25.0278 11.9814 24.9335C11.9988 24.9024 12.0126 24.8776 12.0255 24.8545C12.0582 24.7955 12.0849 24.7474 12.1516 24.6345C12.2599 24.477 12.1206 24.4141 12.0432 24.4141L11.4245 24.4143Z" fill="currentcolor"/>
<path fill-rule="evenodd" clip-rule="evenodd" d="M27.1294 24.5285C27.0512 24.6541 27.032 24.6849 26.8041 25.0597L26.7693 25.1141C26.3602 25.7549 26.1511 26.0826 24.3746 26.0824C23.0442 26.0824 22.6574 26.051 22.6574 26.051C22.5333 26.0194 22.5025 25.8937 22.5953 25.7364L24.2046 23.0925C24.2819 22.935 24.4676 22.8092 24.6066 22.8092C24.6066 22.8092 25.009 22.7463 26.3397 22.7463C27.2062 22.7463 28.0881 22.935 27.5311 23.8794C27.2832 24.2814 27.1891 24.4326 27.1294 24.5285ZM25.5197 25.0597C25.5663 24.9967 26.2624 23.8794 26.2624 23.8794C26.4016 23.6276 26.3398 23.3914 26.1231 23.3914H25.4578C25.365 23.3914 25.2877 23.4386 25.2411 23.5016L24.1273 25.3114C24.0498 25.4373 24.1117 25.4531 24.2356 25.4531H24.9162C25.2411 25.4531 25.4578 25.1541 25.5197 25.0597Z" fill="currentcolor"/>
<path fill-rule="evenodd" clip-rule="evenodd" d="M15.6181 24.5649C15.5235 24.5729 15.4242 24.5814 15.2926 24.5875C15.1533 24.5875 14.9677 24.6976 14.8903 24.8549L14.5654 25.4215C14.1632 26.0666 15.0296 26.1138 15.7104 26.1138C16.809 26.1138 17.3349 25.7991 17.3349 25.7991C17.4742 25.7362 17.6444 25.563 17.7218 25.4215L18.4336 24.2412C18.511 24.1153 18.5421 23.895 18.4644 23.7691C18.4644 23.7691 18.3716 23.549 17.2731 23.549C16.19 23.549 15.7567 23.7219 15.7567 23.7219C15.633 23.7848 15.4782 23.895 15.4317 23.958C15.401 24.0522 15.4627 24.1153 15.5866 24.1153H17.1957C17.3195 24.1153 17.3659 24.2256 17.304 24.3355C17.1648 24.5245 16.9328 24.5403 16.9328 24.5403H16.1435C15.9064 24.5403 15.7681 24.5521 15.6181 24.5649ZM16.7624 25.3114V25.3271C16.654 25.4847 16.4374 25.6263 16.3138 25.6263H15.6949C15.5711 25.6263 15.5246 25.4847 15.6329 25.3271V25.3114C15.7412 25.1384 15.9578 24.9967 16.0815 24.9967H16.7004C16.8243 24.9967 16.8707 25.1384 16.7624 25.3114Z" fill="currentcolor"/>
<path d="M14.4106 24.0839C14.2868 24.0839 14.1167 24.194 14.0084 24.3514L13.2192 25.6578C12.9561 26.0671 12.8323 26.0828 12.6621 26.0828H12.2135C12.1052 26.0828 11.935 26.0041 12.1206 25.6578C12.3372 25.2802 12.6621 24.7606 12.987 24.2573C13.4048 23.6278 13.8072 23.5964 14.5343 23.5964C14.7355 23.5964 15.2616 23.6591 15.2461 23.9111C15.2305 24.0681 14.983 24.0839 14.9056 24.0839H14.4106Z" fill="currentcolor"/>
<path d="M10.7747 24.0209L10.0784 25.2012C9.98552 25.3269 10.0784 25.3899 10.1557 25.3899H10.4033C10.4807 25.3899 10.5889 25.4845 10.496 25.626C10.4745 25.6701 10.4577 25.7067 10.443 25.7387C10.4053 25.8211 10.3817 25.8727 10.326 25.9406C10.264 26.051 10.1558 26.0824 9.97014 26.0824H9.67613C9.47499 26.0824 9.58325 25.7833 9.58325 25.7833C9.28936 26.1138 8.60858 26.1138 7.89681 26.1138C7.21614 26.1138 6.33412 26.1138 6.7365 25.4215L7.60291 24.0051C7.74217 23.769 7.85043 23.6747 7.98968 23.6117C7.98968 23.6117 8.02057 23.5643 8.39184 23.5643C8.63946 23.5643 8.96436 23.5643 8.68596 24.0051L7.89681 25.3114C7.80405 25.4373 7.85043 25.5632 7.98968 25.5632H8.53109C8.67035 25.5632 8.8406 25.4376 8.94886 25.3114C8.94886 25.3114 9.35113 24.6033 9.70712 24.0209C9.79989 23.8794 10.032 23.5645 10.264 23.5645H10.6509C10.8212 23.5645 11.0222 23.6119 10.7747 24.0209Z" fill="currentcolor"/>
<path d="M19.0989 26.7435H17.8146C17.6443 26.7435 17.5051 26.8221 17.4898 26.9325C17.4744 27.0584 17.5363 27.1528 17.5983 27.1686C17.6047 27.1734 17.6099 27.1785 17.6153 27.1836C17.6618 27.2284 17.7175 27.2821 18.6194 27.3103H18.7743C19.8572 27.3103 20.3988 26.9956 20.3988 26.9956C20.5225 26.9169 20.6928 26.7438 20.7855 26.602L21.6055 25.2486C21.6308 25.1841 21.6458 25.1619 21.6675 25.1299L21.6827 25.1071L22.3326 24.0525C22.6266 23.5969 22.3252 23.6051 22.116 23.6107C22.094 23.6113 22.073 23.6119 22.0539 23.6119C21.6984 23.6119 21.6363 23.6591 21.6363 23.6591C21.5125 23.7221 21.3267 23.8952 21.2495 24.0525L20.4759 25.3116C20.3984 25.4378 20.1974 25.5635 20.0891 25.5635H19.5629C19.4391 25.5635 19.4083 25.4376 19.501 25.3116L20.2436 24.0526C20.5369 23.5982 20.2631 23.605 20.0365 23.6107C20.0119 23.6113 19.9879 23.6119 19.9653 23.6119C19.6093 23.6119 19.5474 23.6278 19.5474 23.6591C19.4391 23.7221 19.2689 23.8952 19.1606 24.0526L18.3251 25.4217C17.9231 26.114 18.8204 26.114 19.4701 26.114C19.6713 26.114 19.8414 26.114 20.0117 26.0826L19.7486 26.476C19.6713 26.6336 19.501 26.7593 19.3619 26.7593L19.0989 26.7435Z" fill="currentcolor"/>
<path d="M31.461 20.6375H31.028V20.5431H32.018V20.6375H31.6159V21.4243H31.461V20.6375Z" fill="currentcolor"/>
<path d="M32.4203 20.5431H32.2348V21.4243H32.3584V20.7004L32.6833 21.4243H32.8073L33.1322 20.7004H33.1476V21.4243H33.2713V20.5431H33.0858L32.7454 21.2827L32.4203 20.5431Z" fill="currentcolor"/>
</svg>
