<svg width="1em" height="1em" viewBox="0 0 256 256" fill="none" xmlns="http://www.w3.org/2000/svg">
<path fill-rule="evenodd" clip-rule="evenodd" d="M3.50005 1.93336C3.50005 1.35628 3.00095 0.900024 2.40005 0.900024C1.79915 0.900024 1.30005 1.35628 1.30005 1.93336V14.0667C1.30005 14.6438 1.79915 15.1 2.40005 15.1C3.00095 15.1 3.50005 14.6438 3.50005 14.0667V1.93336ZM7.50005 1.93336C7.50005 1.35628 7.00095 0.900024 6.40005 0.900024C5.79915 0.900024 5.30005 1.35628 5.30005 1.93336V14.0667C5.30005 14.6438 5.79915 15.1 6.40005 15.1C7.00095 15.1 7.50005 14.6438 7.50005 14.0667V1.93336ZM11.4722 1.89004C11.3334 1.32779 10.7377 0.98664 10.1512 1.11319C9.56476 1.23975 9.18916 1.79049 9.32792 2.35274L12.3279 14.5085C12.4667 15.0707 13.0624 15.4119 13.6489 15.2853C14.2354 15.1588 14.611 14.608 14.4722 14.0458L11.4722 1.89004ZM1.93311 15.0024C2.00546 15.0343 2.08201 15.059 2.16165 15.0756C2.23857 15.0916 2.31837 15.1 2.40005 15.1C3.00095 15.1 3.50005 14.6438 3.50005 14.0667V1.93336C3.50005 1.6572 3.38575 1.40871 3.2007 1.22465C3.14411 1.16836 3.08089 1.1181 3.01231 1.07491C2.83653 0.964221 2.62545 0.900024 2.40005 0.900024C1.79915 0.900024 1.30005 1.35628 1.30005 1.93336V14.0667C1.30005 14.4841 1.56119 14.8383 1.93311 15.0024ZM5.74879 14.8994C5.81416 14.9445 5.88495 14.983 5.95999 15.0138C6.0952 15.0693 6.24421 15.1 6.40005 15.1C7.00095 15.1 7.50005 14.6438 7.50005 14.0667V1.93336C7.50004 1.72904 7.43747 1.53984 7.32997 1.3807C7.28501 1.31415 7.2322 1.25285 7.17282 1.1979C6.97315 1.01311 6.69921 0.900024 6.40005 0.900024C5.79915 0.900024 5.30005 1.35628 5.30005 1.93336V14.0667C5.30005 14.4111 5.47777 14.7124 5.74879 14.8994ZM13.2682 15.3039C13.3469 15.313 13.4273 15.3142 13.5083 15.3069C13.5541 15.3027 13.6001 15.2957 13.646 15.286L13.6489 15.2853C14.2354 15.1588 14.611 14.608 14.4722 14.0458L11.4722 1.89004C11.3334 1.32779 10.7377 0.98664 10.1512 1.11319C9.56476 1.23975 9.18916 1.79049 9.32792 2.35274L12.3279 14.5085C12.4364 14.948 12.824 15.2524 13.2682 15.3039ZM10.9868 2.00985L13.9868 14.1656C14.0508 14.425 13.8847 14.723 13.5434 14.7966C13.1935 14.8721 12.8807 14.6617 12.8134 14.3887L9.81336 2.23294C9.74935 1.97359 9.91546 1.67558 10.2567 1.60194C10.6066 1.52644 10.9194 1.73687 10.9868 2.00985ZM3.00005 1.93336C3.00005 1.66523 2.75881 1.40002 2.40005 1.40002C2.04129 1.40002 1.80005 1.66523 1.80005 1.93336V14.0667C1.80005 14.3348 2.04129 14.6 2.40005 14.6C2.75881 14.6 3.00005 14.3348 3.00005 14.0667V1.93336ZM7.00005 1.93336C7.00005 1.66523 6.75881 1.40002 6.40005 1.40002C6.04129 1.40002 5.80005 1.66523 5.80005 1.93336V14.0667C5.80005 14.3348 6.04129 14.6 6.40005 14.6C6.75881 14.6 7.00005 14.3348 7.00005 14.0667V1.93336Z" fill="currentColor"/>
</svg>
