<svg width="36" height="36" viewBox="0 0 36 36" fill="none" xmlns="http://www.w3.org/2000/svg">
<path d="M35.0027 13.1637L33.9549 15.1361L32.9425 13.1637H31.994C32.1712 13.4977 33.4113 15.9243 33.4113 15.9243V17.5238H34.4309C34.4316 17.3064 34.4309 15.9305 34.4309 15.9305C34.4309 15.9305 35.719 13.4992 35.9014 13.1637H35.0027Z" fill="currentcolor"/>
<path d="M22.8166 16.0078C22.8166 16.8075 22.5452 16.9899 21.7829 16.9899C21.0207 16.9899 20.7499 16.8077 20.7499 16.0078V14.658C20.7499 13.878 21.0207 13.7088 21.7829 13.7088C22.5449 13.7088 22.8166 13.8776 22.8166 14.658V16.0078ZM23.2532 13.3294C22.9518 13.1128 22.4432 13 21.7824 13C21.1376 13 20.668 13.0923 20.3091 13.3309C19.934 13.5806 19.7573 13.9988 19.7573 14.6518V16.0709C19.7573 16.7255 19.9405 17.1681 20.3057 17.3883C20.6001 17.5994 21.0803 17.6996 21.7827 17.6996C22.4745 17.6996 22.9683 17.5964 23.2516 17.3934C23.6174 17.1597 23.808 16.7047 23.808 16.0709V14.6518C23.808 14.0301 23.6208 13.5849 23.2532 13.3294Z" fill="currentcolor"/>
<path d="M17.9672 15.8162C17.9672 16.5575 17.5531 16.7449 17.2058 16.7449H15.9781V13.7854H17.2058C17.5532 13.7854 17.9672 13.9719 17.9672 14.6621V15.8162ZM17.1974 13.1637H14.9772V17.3986H17.3533C18.5244 17.3986 18.9602 16.9421 18.9602 15.7141V14.7831C18.9604 13.6179 18.4654 13.1637 17.1974 13.1637Z" fill="currentcolor"/>
<path d="M24.5708 13.1637V17.4613H27.5225V16.7458H25.6087V13.1637H24.5708Z" fill="currentcolor"/>
<path d="M35.9255 17.095C35.9255 17.2853 35.7852 17.4225 35.6067 17.4225C35.4259 17.4225 35.2863 17.2853 35.2863 17.095C35.2863 16.9097 35.4261 16.7694 35.6067 16.7694C35.7852 16.7694 35.9255 16.9099 35.9255 17.095ZM35.2114 17.095C35.2114 17.3213 35.3924 17.486 35.6067 17.486C35.8184 17.486 36 17.3213 36 17.095C36 16.8717 35.8181 16.7076 35.6067 16.7076C35.3922 16.7076 35.2114 16.8717 35.2114 17.095ZM35.5237 16.9293H35.6159C35.6958 16.9293 35.7167 16.9529 35.7167 16.9947C35.7167 17.0454 35.6892 17.0687 35.6046 17.0687H35.5234L35.5237 16.9293ZM35.5237 17.1257H35.6011L35.7205 17.3212H35.7957L35.6684 17.1234C35.7352 17.115 35.7857 17.0798 35.7857 16.9994C35.7857 16.9112 35.7341 16.8715 35.6268 16.8715H35.4548V17.3212H35.5237V17.1257Z" fill="currentcolor"/>
<path d="M30.5826 15.1876C31.4 15.1177 31.5778 14.7441 31.5778 14.207C31.5778 13.7342 31.3623 13.4933 31.1269 13.3574C30.9304 13.2413 30.6969 13.1637 30.207 13.1637H28.0522V17.4613H30.2355C30.907 17.4613 31.1858 17.3382 31.3165 17.2555C31.5375 17.1168 31.8252 16.8103 31.8252 16.3212C31.825 15.7434 31.6107 15.1647 30.5826 15.1876ZM30.0318 16.8368H29.0905V16.833V13.7823V13.78H30.115C30.4605 13.78 30.6777 14.0359 30.6777 14.3876C30.6777 14.9266 30.3976 14.9396 29.6003 14.9664V15.4645C30.3126 15.4614 30.884 15.4216 30.884 16.1098C30.8839 16.456 30.6479 16.8368 30.0318 16.8368Z" fill="currentcolor"/>
<path d="M0 22.009H12.983V13H0V22.009ZM3.01145 20.8405H1.53127V14.1681H3.01112C4.54746 14.1681 5.83181 15.693 5.83181 17.4915C5.83181 19.3428 4.54763 20.8405 3.01145 20.8405ZM11.454 20.8405H9.96928C8.43179 20.8405 7.1499 19.343 7.1499 17.4913C7.1499 15.693 8.43212 14.1679 9.96928 14.1679H11.454V20.8405Z" fill="currentcolor"/>
<path d="M19.9407 21.8725L19.2774 20.7765H18.9443V21.8725H18.2971V18.7538H19.8817C20.0329 18.7538 20.1562 18.7753 20.2529 18.8192C20.3505 18.8627 20.428 18.9204 20.4846 18.9949C20.5423 19.0674 20.5814 19.1525 20.6037 19.2485C20.6267 19.3461 20.6372 19.4451 20.6372 19.5511V19.9698C20.6372 20.0541 20.6299 20.1417 20.614 20.2312C20.5986 20.322 20.5681 20.405 20.5231 20.4798C20.4764 20.5545 20.4131 20.6165 20.3327 20.6661C20.252 20.7159 20.1462 20.7406 20.0155 20.7406H19.9327L20.6831 21.8724H19.9409L19.9407 21.8725ZM19.9991 19.5378C19.9991 19.4422 19.9752 19.3708 19.9286 19.3287C19.8803 19.2844 19.812 19.2632 19.7234 19.2632H18.944V20.2635H19.7316C19.9097 20.2635 19.9993 20.1695 19.9993 19.9832L19.9991 19.5378Z" fill="currentcolor"/>
<path d="M15.1041 19.2579V18.746H17.7032V19.2579H16.7609V21.8726H16.057V19.2579H15.1041Z" fill="currentcolor"/>
<path d="M32.8554 19.6528C32.8566 19.3728 32.5586 19.3914 32.5586 19.3914L31.9126 19.3873V21.1531L32.5452 21.1575C32.7348 21.1575 32.8494 21.0706 32.8503 20.8525L32.8554 19.6528ZM32.8101 21.8573H31.0666V18.7538H32.7597C33.4006 18.7538 33.632 19.032 33.632 19.5394V20.9946C33.632 21.6739 33.3457 21.8573 32.7281 21.8573" fill="currentcolor"/>
<path d="M22.9805 21.9104H22.1978C21.6352 21.9104 21.3655 21.7305 21.3655 21.0639V18.748H22.0233V21.1084C22.0233 21.3062 22.1125 21.3727 22.2703 21.3727H22.9765C23.1336 21.3727 23.2228 21.3062 23.2228 21.1084V18.748H23.8082V21.0639C23.8078 21.7305 23.5439 21.9104 22.9805 21.9104Z" fill="currentcolor"/>
<path d="M27.7237 18.8041V21.8537H28.4879V20.6768L29.5027 20.6666V21.8537H30.3164V18.8041H29.5437L29.5103 20.0273L28.4833 20.0218L28.4794 18.8041H27.7237Z" fill="currentcolor"/>
<path d="M26.8406 18.8095H24.6116V21.8535L26.8367 21.8548V21.4232H25.1178V20.4308L26.4378 20.433V20.0012L25.141 20.0009L25.1474 19.2375H26.8369L26.8406 18.8095Z" fill="currentcolor"/>
</svg>
