<svg width="1em" height="1em" viewBox="0 0 36 36" fill="none" xmlns="http://www.w3.org/2000/svg">
<path d="M12.5059 16.7686C12.5331 17.4162 12.8318 17.7405 12.8318 17.7405C13.0221 17.9929 13.3752 18.0281 13.3752 18.0281C13.5923 18.0648 13.8911 17.9929 13.8911 17.9929V15.4366C13.8911 15.4366 13.5923 15.4006 13.3752 15.4366C13.3752 15.4366 13.0221 15.4729 12.8046 15.7608C12.8046 15.7608 12.5331 16.1208 12.5059 16.6967V16.7686ZM16.2814 18.5682C15.1134 18.5682 14.1898 18.6048 14.1898 18.6048C13.0493 18.6401 12.5059 18.6048 12.5059 18.6048C11.3107 18.6048 10.3059 17.8124 10.2787 16.7327C10.2515 15.6886 11.0936 14.8609 12.3431 14.7887C12.3431 14.7887 12.9134 14.7168 13.8911 14.8609V14.7527V12.7008L16.2814 12.6649V14.8969H17.4494V14.1767L19.7854 13.133V14.8969H20.6268V15.5088C20.1653 15.5088 19.7854 15.5088 19.7854 15.5088V16.6245C19.7854 16.6967 19.7854 17.2364 19.8126 17.3809C19.8126 17.3809 19.8398 17.6686 20.0838 17.8843C20.0838 17.8843 20.2469 18.0281 20.5724 18.0648C20.5724 18.0648 20.6812 18.0648 20.8715 18.0648H21.4424C21.876 18.0648 21.9848 17.9929 21.9848 17.9929C22.1751 17.921 22.2838 17.7405 22.2838 17.5607C22.2838 17.4162 22.2023 17.2724 22.1207 17.2005V17.1645L21.4961 16.5885C21.3065 16.4087 21.2249 16.2646 21.1705 16.2286V16.1927C21.089 16.0848 21.0618 15.9406 21.0618 15.7968C21.0618 15.4729 21.2249 15.2208 21.4689 15.0767H21.4961C21.7136 14.9328 22.8547 14.5007 24.9725 15.0047L24.9454 15.5088H24.891C24.891 15.5088 24.3486 15.4729 24.1039 15.5088C23.9408 15.5448 23.8049 15.6526 23.8049 15.8328C23.8049 15.9406 23.8321 16.0125 23.8865 16.0848H23.9136L24.7551 16.9125C24.9182 17.0926 25.0269 17.309 25.0269 17.5967C25.0269 17.9929 24.7285 18.3884 24.3486 18.4963C24.3486 18.4963 24.1039 18.6048 23.7233 18.6401C23.7233 18.6401 23.533 18.6401 23.0172 18.6401H22.99C21.089 18.6767 19.1057 18.6401 19.1057 18.6401H19.0514C17.8025 18.6048 17.5306 17.6326 17.5306 17.6326C17.4766 17.4528 17.4494 17.0207 17.4494 17.0207V15.5088H16.2814V18.5682Z" fill="currentcolor"/>
<path d="M34.3165 16.6968C34.3165 16.4088 34.2893 16.2287 34.2893 16.2287C34.2621 15.8687 34.1805 15.6886 34.1805 15.6886C34.1262 15.5448 34.0446 15.5088 34.0446 15.5088C33.9631 15.4366 33.8543 15.4006 33.8543 15.4006C33.7728 15.4006 33.6368 15.4006 33.6368 15.4006H33.5009V17.9929H33.6368C33.6368 17.9929 33.7728 17.9929 33.8543 17.9563C33.8543 17.9563 33.9631 17.9563 34.0446 17.8843C34.0446 17.8843 34.1262 17.8484 34.1805 17.7046C34.1805 17.7046 34.2621 17.5248 34.2893 17.1645C34.2893 17.1645 34.3165 16.9848 34.3165 16.6968ZM36 16.6968C36 17.0567 35.9191 17.3443 35.9191 17.3443C35.8376 17.7405 35.5657 18.0282 35.5657 18.0282C35.321 18.3525 34.8595 18.4963 34.8595 18.4963C34.5877 18.5682 34.2621 18.6048 34.2621 18.6048C34.0174 18.6048 33.6912 18.6048 33.6912 18.6048H31.8717V14.7887H33.6912C33.6912 14.7887 34.0174 14.7887 34.2621 14.7887C34.2621 14.7887 34.5877 14.8247 34.8595 14.8969C34.8595 14.8969 35.321 15.0407 35.5657 15.3647C35.5657 15.3647 35.8376 15.6527 35.9191 16.0485C35.9191 16.0485 36 16.3369 36 16.6605V16.6968Z" fill="currentcolor" fill-opacity="0.6"/>
<path d="M29.563 18.6048H31.1928V14.7887H29.563V16.3369H28.8568V14.7887H27.2276V16.3369H25.2988V16.9488H27.2276V18.6048H28.8568V16.9488H29.563V18.6048Z" fill="currentcolor" fill-opacity="0.6"/>
<path d="M0.256414 14.6089C0.826648 13.997 2.59206 13.6008 4.62934 13.745C6.96498 13.8528 8.83914 14.6089 9.00226 15.4729V15.4366C9.02944 15.1127 9.00226 14.8969 9.00226 14.8969C8.94789 13.997 6.9378 13.3128 4.4934 13.3491C2.45647 13.3851 0.745429 13.8888 0.202042 14.573C0.202042 14.573 0.229228 14.6089 0.256414 14.6089Z" fill="currentcolor"/>
<path d="M0.799471 15.0408C1.61438 14.6449 3.02671 14.4288 4.62935 14.537C6.96499 14.6449 8.83915 15.4007 9.00227 16.2287C9.02946 15.9047 9.00227 15.6886 9.00227 15.6886C8.97508 14.7887 6.96499 14.1049 4.49341 14.1408C2.86393 14.1768 1.4516 14.5007 0.663879 14.9688C0.663879 14.9688 0.718252 15.0048 0.799471 15.0408Z" fill="currentcolor"/>
<path d="M1.83153 15.5089C2.61926 15.3287 3.59728 15.2568 4.62935 15.3287C6.96499 15.4366 8.83915 16.1927 9.00227 17.0207C9.02945 16.6968 9.00227 16.4807 9.00227 16.4807C8.9479 15.5808 6.93781 14.8969 4.49341 14.9329C3.35261 14.9329 2.32055 15.1127 1.53282 15.3647C1.53282 15.3647 1.69594 15.4366 1.83153 15.4729L1.83153 15.5089Z" fill="currentcolor"/>
<path d="M0.0389404 14.1048C0.229245 13.2768 2.13059 12.593 4.49342 12.557C6.74785 12.5211 8.56763 13.097 8.92072 13.8528C8.92072 13.8528 8.97509 13.961 8.97509 14.0329C8.97509 14.0329 9.00228 14.1768 9.00228 14.6449V14.6808C8.83916 13.8169 6.965 13.0611 4.62935 12.9529C2.26618 12.8091 0.310804 13.3491 0.0389404 14.1048Z" fill="currentcolor"/>
<path d="M8.81196 16.6604C8.26891 17.3443 6.55787 17.8843 4.54778 17.8843C2.07621 17.921 0.0661156 17.2364 0.0120828 16.3728C0.0120828 16.3728 -0.0151035 16.1567 0.0120828 15.7968C0.202047 16.6245 2.07621 17.3809 4.38501 17.5248C6.42194 17.6326 8.18735 17.2724 8.78477 16.6245L8.81196 16.6604Z" fill="currentcolor"/>
<path d="M8.35047 16.2647C7.56275 16.7687 6.15042 17.0927 4.5206 17.0927C2.07621 17.1286 0.0661156 16.4448 0.0120828 15.5808C0.0120828 15.5808 -0.0151035 15.3647 0.0120828 15.0048C0.202047 15.8328 2.07621 16.5886 4.38501 16.7328C5.9873 16.8047 7.39963 16.5886 8.21454 16.1927C8.21454 16.1927 8.2961 16.2287 8.35047 16.2647Z" fill="currentcolor"/>
<path d="M7.50838 15.8687C6.72065 16.1208 5.66141 16.3006 4.54779 16.3006C2.07621 16.3369 0.0661178 15.6527 0.012085 14.7887C0.012085 14.7887 0.012085 14.573 0.012085 14.2127C0.202049 15.0407 2.07621 15.7968 4.38501 15.9407C5.44426 16.0126 6.39476 15.9407 7.18248 15.7609C7.18248 15.7609 7.31807 15.7968 7.48119 15.8687L7.50838 15.8687Z" fill="currentcolor"/>
<path d="M8.97508 17.1286C8.78478 17.9929 6.88377 18.6401 4.5206 18.6768C2.29336 18.712 0.446387 18.1727 0.0933041 17.381C0.0933041 17.381 0.0661178 17.309 0.0389314 17.2005C0.0389314 17.2005 0.012085 17.0926 0.012085 16.6245V16.5886C0.202049 17.4162 2.07621 18.1727 4.38501 18.3165C6.74784 18.4603 8.73075 17.8844 8.97508 17.1286Z" fill="currentcolor"/>
<path d="M12.5603 23.248V20.5845L11.8269 23.248H11.4195L10.6589 20.5845V23.248H10.3602V20.2968H10.9308L11.637 22.8884L12.3431 20.2968H12.9134V23.248H12.5603Z" fill="currentcolor"/>
<path d="M14.4072 22.2046H14.3257C13.9998 22.2046 13.6739 22.2765 13.6739 22.636C13.6739 22.8518 13.7555 23.0322 13.9726 23.0322C14.2985 23.0322 14.4072 22.708 14.4072 22.4563V22.2046ZM14.4072 23.248V22.9963C14.2713 23.1761 14.1357 23.2839 13.8639 23.2839C13.5108 23.2839 13.348 23.0322 13.348 22.672C13.348 22.0241 13.8639 21.9881 14.4072 21.9881V21.9162C14.4072 21.6645 14.4072 21.3762 14.0814 21.3762C13.891 21.3762 13.7283 21.4841 13.7283 21.6998H13.4296C13.4296 21.3043 13.7283 21.1598 14.0814 21.1598C14.5704 21.1598 14.706 21.3762 14.706 21.8443V22.6001C14.706 22.8165 14.706 23.0322 14.7331 23.248H14.4072Z" fill="currentcolor"/>
<path d="M15.7108 23.2839C15.3306 23.2839 15.1134 23.1042 15.0862 22.7799C15.0862 22.7446 15.0862 22.672 15.0862 22.636H15.4121C15.4121 22.672 15.4121 22.708 15.4121 22.7446C15.4121 22.9237 15.4937 23.0682 15.7108 23.0682C15.9011 23.0682 16.0099 22.9237 16.0099 22.7446C16.0099 22.4922 15.874 22.4203 15.6565 22.2765C15.3578 22.1327 15.1406 22.0241 15.1406 21.6998C15.1406 21.3403 15.3849 21.1598 15.738 21.1598C16.0911 21.1598 16.2814 21.3043 16.3086 21.5926C16.3358 21.6645 16.3358 21.6998 16.3358 21.7717H16.0099C16.0099 21.6998 16.0099 21.6645 16.0099 21.6279C15.9827 21.4841 15.9283 21.3762 15.7108 21.3762C15.5481 21.3762 15.4393 21.4841 15.4393 21.6645C15.4393 21.8803 15.6296 21.9522 15.8468 22.0601C16.1183 22.2046 16.3358 22.3484 16.3358 22.672C16.3358 23.1042 16.0911 23.2839 15.7108 23.2839Z" fill="currentcolor"/>
<path d="M17.2863 23.284C16.906 23.284 16.8245 23.1042 16.8245 22.7446V21.4481H16.5257V21.1965H16.8245V20.8362L17.1503 20.6924V21.1965H17.5034V21.4481H17.1503V22.708C17.1503 22.9604 17.2047 22.9963 17.3678 22.9963C17.4222 22.9963 17.4766 22.9963 17.5306 22.9963V23.248C17.4494 23.248 17.3678 23.284 17.2863 23.284Z" fill="currentcolor"/>
<path d="M18.8074 21.8084C18.7802 21.5926 18.6986 21.3762 18.4546 21.3762C18.2099 21.3762 18.1012 21.556 18.074 21.7717C18.074 21.8803 18.074 21.9522 18.074 22.0601H18.8074C18.8074 21.9522 18.8074 21.8803 18.8074 21.8084ZM18.074 22.2765V22.4203C18.074 22.7446 18.1012 23.0682 18.4546 23.0682C18.753 23.0682 18.8074 22.8518 18.8074 22.6001H19.1329C19.1057 23.0322 18.9426 23.2839 18.4546 23.2839C17.8025 23.2839 17.7481 22.8518 17.7481 22.3118C17.7481 21.7717 17.7753 21.1598 18.4546 21.1598C19.1329 21.1598 19.1329 21.6645 19.1329 22.1679V22.2765H18.074Z" fill="currentcolor"/>
<path d="M20.3284 21.4481C20.0029 21.4481 19.8669 21.6645 19.8669 21.9881V23.248H19.5407V21.5926C19.5407 21.4841 19.5407 21.3043 19.5407 21.1964H19.8398V21.4841C19.9757 21.2683 20.1381 21.1598 20.3828 21.1598H20.4093V21.4841C20.3828 21.4481 20.3556 21.4481 20.3284 21.4481Z" fill="currentcolor"/>
<path d="M22.3926 20.6204L21.9848 22.2398H22.8275L22.3926 20.6204ZM23.1259 23.248L22.9091 22.4922H21.9032L21.6864 23.248H21.3336L22.2023 20.2968H22.6372L23.4787 23.248H23.1259Z" fill="currentcolor"/>
<path d="M24.7822 23.248V22.9963C24.647 23.1761 24.4839 23.2839 24.2671 23.2839C23.8593 23.2839 23.6961 23.0322 23.6961 22.636V21.1964H24.0224V22.4922C24.0224 22.7446 24.0224 23.0322 24.3486 23.0322C24.7014 23.0322 24.7551 22.7079 24.7551 22.4562V21.1964H25.0813V22.7799C25.0813 22.9603 25.0813 23.1041 25.1085 23.248H24.7822Z" fill="currentcolor"/>
<path d="M26.2218 21.3762C25.8418 21.3762 25.8418 21.8443 25.8418 22.2045C25.8418 22.672 25.869 23.0322 26.1952 23.0322C26.5752 23.0322 26.6024 22.636 26.6024 22.2398C26.6024 21.8083 26.5752 21.3762 26.2218 21.3762ZM26.6295 23.248V22.9963C26.4936 23.212 26.3577 23.2839 26.1409 23.2839C25.5435 23.2839 25.4891 22.7079 25.4891 22.2045C25.4891 21.6998 25.5706 21.1598 26.1409 21.1598C26.3577 21.1598 26.4936 21.2324 26.6024 21.4121V20.2968H26.9286V22.8518C26.9286 22.9603 26.9286 23.1401 26.9286 23.248H26.6295Z" fill="currentcolor"/>
<path d="M27.4173 21.1964H27.7428V23.2479H27.4173V21.1964ZM27.4173 20.3687H27.77V20.6923H27.4173V20.3687Z" fill="currentcolor"/>
<path d="M29.2639 22.1327C29.2639 21.8084 29.2639 21.3762 28.884 21.3762C28.4769 21.3762 28.504 21.8443 28.504 22.1327V22.4203C28.504 22.708 28.504 23.0682 28.884 23.0682C29.2367 23.0682 29.2639 22.708 29.2639 22.4203V22.1327ZM28.884 23.2839C28.2322 23.2839 28.1778 22.8518 28.1778 22.2398C28.1778 21.6645 28.2322 21.1598 28.884 21.1598C29.5358 21.1598 29.5901 21.5926 29.5901 22.2046C29.5901 22.8884 29.4814 23.2839 28.884 23.2839Z" fill="currentcolor"/>
<path d="M34.642 13.4929V12.7731H34.398V12.7009H35.022V12.7731H34.7508V13.4929H34.642Z" fill="currentcolor"/>
<path d="M35.1035 13.4929V12.7009H35.2666L35.457 13.2409C35.457 13.3128 35.4841 13.3491 35.4841 13.3491C35.4841 13.3491 35.5113 13.3128 35.5385 13.2409L35.7016 12.7009H35.8647V13.4929H35.756V12.8091L35.5113 13.4929H35.4298L35.2123 12.8091V13.4929H35.1035Z" fill="currentcolor"/>
</svg>
